<?xml version="1.0" encoding="UTF-8"?>
<svg version="1.1" xmlns="http://www.w3.org/2000/svg" width="257" height="135">
<path d="M0 0 C5.44633855 2.62231115 9.74898987 6.61089982 11.859375 12.328125 C13.35642479 18.27981076 13.15347802 22.68073708 10 28 C6.30756228 32.77844881 1.73755468 35.33850872 -4 37 C-7.97058703 37.1831096 -11.76162651 36.63014902 -15.6875 36.0625 C-16.85796875 35.92223389 -18.0284375 35.78196777 -19.234375 35.63745117 C-25.32665324 34.9047333 -31.40457455 34.08872344 -37.47900391 33.22070312 C-42.47372004 32.50835629 -47.47373126 31.84939414 -52.47866821 31.21310425 C-54.4642874 30.94982714 -56.44746335 30.66727358 -58.42733765 30.36380005 C-70.96930208 28.44627482 -80.05537114 28.55320947 -91.59460449 34.32514954 C-93.72759649 35.38024849 -95.71030358 36.3505188 -98 37 C-101.02929688 35.96801758 -101.02929688 35.96801758 -103 34 C-103.4375 30.4375 -103.4375 30.4375 -103 27 C-102.34 26.34 -101.68 25.68 -101 25 C-98.86682129 25.00756836 -98.86682129 25.00756836 -96.19726562 25.33984375 C-79.07614097 27.04038367 -67.07769059 23.87810335 -51.5 17 C-49.4471899 16.13485466 -47.39249726 15.27416249 -45.3359375 14.41796875 C-40.43849074 12.36819558 -35.56095635 10.27587146 -30.68960571 8.16494751 C-26.60701683 6.39665793 -22.51838115 4.64451791 -18.41796875 2.91796875 C-17.41491699 2.48357483 -17.41491699 2.48357483 -16.39160156 2.04040527 C-10.90612627 -0.25704833 -5.8590956 -1.28263914 0 0 Z " fill="#418596" transform="translate(180,51)"/>
<path d="M0 0 C0.66 0.33 1.32 0.66 2 1 C0.68 1.33 -0.64 1.66 -2 2 C-2 2.66 -2 3.32 -2 4 C-1.07316406 3.91621094 -0.14632812 3.83242187 0.80859375 3.74609375 C2.60490234 3.59333984 2.60490234 3.59333984 4.4375 3.4375 C5.63246094 3.33308594 6.82742187 3.22867188 8.05859375 3.12109375 C9.02925781 3.08113281 9.99992187 3.04117188 11 3 C11.495 3.495 11.495 3.495 12 4 C13.134375 3.95875 14.26875 3.9175 15.4375 3.875 C16.613125 3.91625 17.78875 3.9575 19 4 C19.66 4.99 20.32 5.98 21 7 C17.83308393 6.85929844 14.66653622 6.71148731 11.5 6.5625 C10.613125 6.52318359 9.72625 6.48386719 8.8125 6.44335938 C7.9359375 6.40146484 7.059375 6.35957031 6.15625 6.31640625 C5.27815674 6.27547852 4.40006348 6.23455078 3.49536133 6.19238281 C1.25465981 6.0196333 -0.82125235 5.64940335 -3.01953125 5.20703125 C-9.35260912 4.87763662 -14.20650905 7.72553552 -19.84179688 10.37109375 C-26.31812455 13.22873037 -26.31812455 13.22873037 -30.0859375 11.96484375 C-32 10 -32 10 -32.4375 6.4375 C-32 3 -32 3 -30 1 C-27.55737305 0.89648438 -27.55737305 0.89648438 -24.51171875 1.09375 C-23.41279297 1.15433594 -22.31386719 1.21492188 -21.18164062 1.27734375 C-18.86388478 1.42503753 -16.54617572 1.57346751 -14.22851562 1.72265625 C-13.12572266 1.78324219 -12.02292969 1.84382813 -10.88671875 1.90625 C-9.37404419 2.00389648 -9.37404419 2.00389648 -7.83081055 2.10351562 C-4.79214401 1.99239923 -2.77838468 1.16124158 0 0 Z " fill="#15334F" transform="translate(109,75)"/>
<path d="M0 0 C1.38294718 0.01329757 2.76582404 0.03715018 4.1484375 0.0703125 C4.85484375 0.07933594 5.56125 0.08835937 6.2890625 0.09765625 C8.03399848 0.12123647 9.77876045 0.15710789 11.5234375 0.1953125 C11.5234375 1.1853125 11.5234375 2.1753125 11.5234375 3.1953125 C10.2034375 3.1953125 8.8834375 3.1953125 7.5234375 3.1953125 C7.5234375 4.1853125 7.5234375 5.1753125 7.5234375 6.1953125 C3.61465416 8.80116806 0.06221784 8.41853121 -4.4765625 8.1953125 C-5.4765625 7.1953125 -5.4765625 7.1953125 -5.6640625 4.7578125 C-5.35683641 0.55905592 -4.07075284 0.22869398 0 0 Z " fill="#1B5997" transform="translate(84.4765625,77.8046875)"/>
<path d="M0 0 C-0.37765842 2.73802355 -0.74886988 3.78235389 -2.875 5.625 C-3.57625 6.07875 -4.2775 6.5325 -5 7 C-5.99 7.66 -6.98 8.32 -8 9 C-8 8.34 -8 7.68 -8 7 C-8.53625 7.33 -9.0725 7.66 -9.625 8 C-12.5929092 9.24964598 -14.80799279 9.27756584 -18 9 C-18.66 8.34 -19.32 7.68 -20 7 C-17.23174812 5.82685974 -14.46071514 4.66129785 -11.6875 3.5 C-10.50897461 2.99919922 -10.50897461 2.99919922 -9.30664062 2.48828125 C-8.54931641 2.17246094 -7.79199219 1.85664062 -7.01171875 1.53125 C-6.31522217 1.23798828 -5.61872559 0.94472656 -4.90112305 0.64257812 C-3 0 -3 0 0 0 Z " fill="#326A81" transform="translate(142,63)"/>
<path d="M0 0 C1.98 0 3.96 0 6 0 C2.03549364 3.49809385 -1.59582254 6.05040263 -7.07763672 5.96923828 C-9.35710385 5.75283634 -11.60985589 5.45901278 -13.875 5.125 C-14.65875 5.02058594 -15.4425 4.91617188 -16.25 4.80859375 C-18.16834175 4.55125522 -20.08444301 4.2773078 -22 4 C-22 3.67 -22 3.34 -22 3 C-14.74 3 -7.48 3 0 3 C0 2.01 0 1.02 0 0 Z " fill="#254C5F" transform="translate(181,82)"/>
<path d="M0 0 C3.00024947 -0.05444001 5.99949039 -0.0938836 9 -0.125 C9.83917969 -0.14175781 10.67835938 -0.15851563 11.54296875 -0.17578125 C17.05254877 -0.21849117 21.71048292 0.44497993 27 2 C27 2.33 27 2.66 27 3 C17.78372955 3.30892527 9.08785235 2.39049107 0 1 C0 0.67 0 0.34 0 0 Z " fill="#234A62" transform="translate(131,82)"/>
<path d="M0 0 C0 0.33 0 0.66 0 1 C-2.79256219 0.88638398 -5.58344118 0.7596411 -8.375 0.625 C-9.1690625 0.5940625 -9.963125 0.563125 -10.78125 0.53125 C-16.7734375 0.2265625 -16.7734375 0.2265625 -19 -2 C-12.30254799 -3.05749242 -6.07875011 -3.64725006 0 0 Z " fill="#245374" transform="translate(130,81)"/>
<path d="M0 0 C-0.94724127 2.36810318 -1.65291134 3.75207953 -3.75 5.25 C-6.57753638 6.19251213 -9.03993304 6.1345485 -12 6 C-11 3 -11 3 -9.2578125 2.05078125 C-8.55398437 1.80714844 -7.85015625 1.56351562 -7.125 1.3125 C-6.42632812 1.06113281 -5.72765625 0.80976562 -5.0078125 0.55078125 C-3 0 -3 0 0 0 Z " fill="#295877" transform="translate(122,71)"/>
<path d="M0 0 C0 0.33 0 0.66 0 1 C-0.61488281 1.03738281 -1.22976562 1.07476562 -1.86328125 1.11328125 C-3.07564453 1.21189453 -3.07564453 1.21189453 -4.3125 1.3125 C-5.11300781 1.37050781 -5.91351563 1.42851563 -6.73828125 1.48828125 C-9.40267568 2.09110624 -10.15241698 3.07030218 -12 5 C-15.1875 5.1875 -15.1875 5.1875 -18 5 C-18 4.34 -18 3.68 -18 3 C-11.92122066 -0.24201565 -6.81598387 -0.33278764 0 0 Z " fill="#365D56" transform="translate(180,51)"/>
<path d="M0 0 C1.50433594 0.01353516 1.50433594 0.01353516 3.0390625 0.02734375 C3.80992187 0.03894531 4.58078125 0.05054688 5.375 0.0625 C5.045 1.0525 4.715 2.0425 4.375 3.0625 C2.9379191 3.11672947 1.50024538 3.15539723 0.0625 3.1875 C-0.73800781 3.21070313 -1.53851563 3.23390625 -2.36328125 3.2578125 C-4.625 3.0625 -4.625 3.0625 -7.625 1.0625 C-4.98041621 -0.25979189 -2.94738699 -0.03427194 0 0 Z " fill="#589183" transform="translate(176.625,51.9375)"/>
<path d="M0 0 C0 0.66 0 1.32 0 2 C-3.3 2 -6.6 2 -10 2 C-10 1.34 -10 0.68 -10 0 C-6.30458414 -0.95024979 -3.69541586 -0.95024979 0 0 Z " fill="#286C9E" transform="translate(117,77)"/>
<path d="M0 0 C0 0.99 0 1.98 0 3 C-3.96 3 -7.92 3 -12 3 C-7.87960164 0.25306776 -4.92304458 0 0 0 Z " fill="#377D9D" transform="translate(181,82)"/>
<path d="M0 0 C-1 2 -1 2 -3 4 C-6.625 4.125 -6.625 4.125 -10 4 C-7.02096266 1.02096266 -4.19714671 0 0 0 Z " fill="#325A5F" transform="translate(152,59)"/>
<path d="M0 0 C-0.33 1.32 -0.66 2.64 -1 4 C-3.31 3.67 -5.62 3.34 -8 3 C-3.5 0 -3.5 0 0 0 Z " fill="#325D6C" transform="translate(142,63)"/>
<path d="M0 0 C0.66 0.33 1.32 0.66 2 1 C1.67 1.66 1.34 2.32 1 3 C1.66 3 2.32 3 3 3 C1.84826645 5.46800047 0.95216435 7.04783565 -1 9 C-0.67 6.03 -0.34 3.06 0 0 Z " fill="#38646D" transform="translate(188,73)"/>
</svg>
